<?xml version="1.0" encoding="UTF-8" standalone="no"?>
<!-- Uploaded to: SVG Repo, www.svgrepo.com, Generator: SVG Repo Mixer Tools -->

<svg
   width="800px"
   height="800px"
   viewBox="0 0 36 36"
   aria-hidden="true"
   role="img"
   class="iconify iconify--twemoji"
   preserveAspectRatio="xMidYMid meet"
   version="1.1"
   id="svg18"
   sodipodi:docname="giraffe-svgrepo-com.svg"
   inkscape:version="1.1.2 (b8e25be833, 2022-02-05)"
   xmlns:inkscape="http://www.inkscape.org/namespaces/inkscape"
   xmlns:sodipodi="http://sodipodi.sourceforge.net/DTD/sodipodi-0.dtd"
   xmlns="http://www.w3.org/2000/svg"
   xmlns:svg="http://www.w3.org/2000/svg">
  <defs
     id="defs22" />
  <sodipodi:namedview
     id="namedview20"
     pagecolor="#ffffff"
     bordercolor="#666666"
     borderopacity="1.0"
     inkscape:pageshadow="2"
     inkscape:pageopacity="0.0"
     inkscape:pagecheckerboard="0"
     showgrid="false"
     inkscape:zoom="1.03875"
     inkscape:cx="400"
     inkscape:cy="394.70517"
     inkscape:window-width="2560"
     inkscape:window-height="1377"
     inkscape:window-x="1912"
     inkscape:window-y="-739"
     inkscape:window-maximized="1"
     inkscape:current-layer="svg18" />
  <path
     d="m 12.450698,35.615 h 0.002 a -1.477,1.477 0 0 0 1.198,-1.712 l -0.59,-3.344 c 0,0 -0.68,-3.165 1.076,-5.449 -1.259,-1.171 -5.0240001,0.085 -5.0240001,0.085 l 1.6260001,9.221 a -1.478,1.478 0 0 0 1.712,1.199 z m 12.692,-0.021 h 0.002 a -1.477,1.477 0 0 0 1.198,-1.712 l -1.312,-7.025 c 0,0 -0.503,-2.419 -0.503,-4.439 -1.142,-0.439 -2.723,2.757 -2.723,2.757 l 1.626,9.221 a -1.48,1.48 0 0 0 1.712,1.198 z M 3.8656979,25.771 a -0.985,0.985 0 0 0 0.985,-0.969 c 0.012,-0.723 0.304,-4.326 4.925,-4.326 a -0.985,0.985 0 1 0 0,-1.97 c -5.363,0 -6.858,3.938 -6.896,6.264 a -0.985,0.985 0 0 0 0.969,1.002 z"
     fill="#f4900c"
     id="path2" />
  <g
     fill="#754c29"
     id="g8"
     transform="matrix(-1,0,0,1,34.667698,0)">
    <path
       d="m 15.226,17.252 -3.46,-11.98 1.687,-1.02 c 0.369,0.61 0.628,1.722 1.054,3.633 0.569,2.558 1.349,6.06 2.657,7.876 a 0.986,0.986 0 0 1 -0.224,1.376 c -0.175,0.126 -1.714,0.115 -1.714,0.115 z M 7.615,2.71 V 0.739 a 0.74,0.74 0 0 1 1.478,0 V 2.71 Z m 2.332,0 V 0.739 a 0.74,0.74 0 0 1 1.478,0 V 2.71 Z"
       id="path4" />
    <ellipse
       cx="30.802"
       cy="26.263"
       rx="1.971"
       ry="2.464"
       id="ellipse6" />
  </g>
  <path
     fill="#ffcc4d"
     d="m 5.7326979,34.094 c 0,0 0.647,-2.515 0.998,-4.154 0.332,-1.549 1.025,-3.981 1.171,-8.225 0.01,-0.145 0.039,-0.512 0.138,-0.779 0.122,-0.33 0.567,-0.933 0.766,-1.203 0.777,-1.052 2.0120001,-1.691 3.5260001,-1.847 1.283,-0.132 2.573,-0.185 3.854,-0.339 0.59,-0.071 1.1,-0.156 1.422,-0.272 1.636,-0.589 1.962,-2.502 2.414,-3.965 0.8,-2.59 1.508,-5.225 1.961,-7.9 l 0.036,0.009 -0.036,-0.009 0.027,-0.165 V 4.84 c -1.567,-0.714 -2.79,-2.888 -1.971,-3.706 1.416,-0.708 2.827,0.11 3.513,0.992 0.02,-10e-4 0.039,-0.006 0.059,-0.006 h 2.598 c 0.655,0 1.304,0.16 1.872,0.51 0.584,0.359 0.986,0.907 1.633,1.19 0.786,0.344 1.721,0.093 2.417,0.64 1.189,0.933 0.625,2.525 -0.854,2.578 -0.201,0.577 -0.745,0.993 -1.39,0.993 h -2.106 c -0.055,0.011 -0.108,0.021 -0.173,0.029 -0.604,0.071 -1.088,0.525 -1.477,1.215 -1.047,1.856 -1.244,4.244 -1.415,6.324 a -45.96,45.96 0 0 0 -0.158,4.36 c 0.293,1.566 0.12,3.377 0.12,3.377 -0.044,0.419 -0.186,0.777 -0.394,1.095 l 0.01,0.011 c -1.99,2.81 -2.449,5.97 -2.449,5.97 l -0.784,4.193 a -1.4784209,1.4784209 0 0 1 -2.912,-0.513 l 1.262,-7.159 c -1.977,0.534 -4.609,0.932 -6.449,0.852 0,0.006 0.003,0.014 0.002,0.02 -2.371,-0.146 -3.2600001,1.73 -3.4540001,2.576 -0.194,0.846 -0.868,4.228 -0.868,4.228 a -1.478,1.478 0 1 1 -2.909,-0.515 z"
     id="path10" />
  <path
     fill="#f4900c"
     d="m 22.692698,22.1 c 0.985,0.985 1.16,2.408 0.391,3.178 -0.77,0.77 -2.193,0.595 -3.178,-0.391 -0.985,-0.986 -1.16,-2.408 -0.391,-3.178 0.77,-0.77 2.193,-0.595 3.178,0.391 z m -1.088,-6.185 a -2.956,2.956 0 0 1 -5.418,1.633 c 0.59,-0.071 1.1,-0.156 1.422,-0.272 1.564,-0.563 1.872,-2.237 2.253,-3.441 0.057,-0.179 0.108,-0.349 0.162,-0.523 a -2.947,2.947 0 0 1 1.581,2.603 z m 0.986,-4.434 a -2.464,2.464 0 0 1 2.464,-2.464 c 0.388,0 0.75,0.098 1.077,0.257 -0.635,1.126 -1.015,2.885 -1.242,4.653 a -2.456,2.456 0 0 1 -2.299,-2.446 z m 1.093,-4.079 c 0,1.118 -0.906,2.023 -2.023,2.023 -0.182,0 -0.355,-0.032 -0.523,-0.077 a -52.35,52.35 0 0 0 0.847,-3.937 -2.02,2.02 0 0 1 1.699,1.991 z m -8.977,12.456 a -2.956,2.956 0 0 1 -5.9120001,0 c 0,-0.043 0.011,-0.082 0.013,-0.124 0.777,-1.052 2.0120001,-1.691 3.5260001,-1.847 a -58.282,58.282 0 0 1 1.499,-0.128 -2.954,2.954 0 0 1 0.874,2.099 z m 8.363,-17.245 c -0.505,-0.483 -1.317,-1.089 -1.778,-0.856 -0.461,0.233 -0.258,1.273 1.166,2.151 -0.113,-0.439 -0.551,-1.215 0.612,-1.295 z"
     id="path12" />
  <circle
     fill="#292f33"
     cx="-25.895697"
     cy="4.0900002"
     r="0.98500001"
     id="circle14"
     transform="scale(-1,1)" />
  <path
     d="m 13.620698,33.545 c 0,0 1.142,1.351 0.985,1.781 -0.157,0.43 -2.741,0.491 -3.249,0.022 -0.508,-0.469 1.951,-1.842 2.264,-1.803 z m 12.623,0 c 0,0 1.142,1.351 0.985,1.781 -0.156,0.43 -2.741,0.491 -3.249,0.022 -0.508,-0.469 1.951,-1.842 2.264,-1.803 z m -4.547,2.22 c -0.136,0.391 -2.766,0.329 -3.205,-0.461 -0.439,-0.79 2.678,-1.317 2.678,-1.317 0,0 0.703,1.273 0.527,1.778 z m -12.4040001,0 c -0.136,0.391 -2.766,0.329 -3.205,-0.461 -0.439,-0.79 2.678,-1.317 2.678,-1.317 0,0 0.703,1.273 0.527,1.778 z"
     fill="#754c29"
     id="path16" />
</svg>
